name Walk7.mot
datacolumns 19
datarows 22
range 2.43500000 2.54000000
endheader

                time	   L_ground_force_vx	   L_ground_force_vy	   L_ground_force_vz	   L_ground_force_px	   L_ground_force_py	   L_ground_force_pz	   R_ground_force_vx	   R_ground_force_vy	   R_ground_force_vz	   R_ground_force_px	   R_ground_force_py	   R_ground_force_pz	   L_ground_torque_x	   L_ground_torque_y	   L_ground_torque_z	   R_ground_torque_x	   R_ground_torque_y	   R_ground_torque_z	
          2.43500000	          0.00000000	          0.00000000	          0.00000000	          0.00000000	          0.00000000	          0.00000000	         -1.20650559	          1.42121910	          0.74828402	          0.09107618	          0.00000000	          0.02633759	          0.00000000	         -0.00000000	          0.00000000	          0.00000000	          0.00804403	          0.00000000	
          2.44000000	          0.00000000	          0.00000000	          0.00000000	         -0.00000000	          0.00000000	         -0.00000000	         -2.08326300	         -2.54993355	          0.58446337	          0.06312444	          0.00000000	          0.01794557	          0.00000000	         -0.00000000	          0.00000000	          0.00000000	          0.00938851	          0.00000000	
          2.44500000	          0.00000000	          0.00000000	          0.00000000	         -0.00000000	          0.00000000	         -0.00000000	         -2.48074963	         -4.89488790	          0.43318437	          0.04020715	          0.00000000	          0.01114466	          0.00000000	          0.00000000	          0.00000000	          0.00000000	          0.00950818	          0.00000000	
          2.45000000	          0.00000000	          0.00000000	          0.00000000	         -0.00000000	          0.00000000	         -0.00000000	         -2.53945280	         -6.01153526	          0.30191244	          0.02233083	          0.00000000	          0.00590196	          0.00000000	          0.00000000	          0.00000000	          0.00000000	          0.00883295	          0.00000000	
          2.45500000	          0.00000000	          0.00000000	          0.00000000	         -0.00000000	          0.00000000	         -0.00000000	         -2.37625800	         -6.25217982	          0.19385266	          0.00910100	          0.00000000	          0.00207314	          0.00000000	          0.00000000	          0.00000000	          0.00000000	          0.00770135	          0.00000000	
          2.46000000	          0.00000000	          0.00000000	         -0.00000000	         -0.00000000	          0.00000000	         -0.00000000	         -2.08367106	         -5.91202869	          0.10922462	         -0.00010282	          0.00000000	         -0.00054617	          0.00000000	          0.00000000	          0.00000000	          0.00000000	          0.00636659	          0.00000000	
          2.46500000	          0.00000000	          0.00000000	         -0.00000000	         -0.00000000	          0.00000000	         -0.00000000	         -1.73124754	         -5.22632637	          0.04631595	         -0.00599691	          0.00000000	         -0.00218268	          0.00000000	          0.00000000	          0.00000000	          0.00000000	          0.00500712	          0.00000000	
          2.47000000	          0.00000000	          0.00000000	         -0.00000000	         -0.00000000	          0.00000000	         -0.00000000	         -1.36832441	         -4.37325954	          0.00231081	         -0.00930240	          0.00000000	         -0.00305952	          0.00000000	          0.00000000	          0.00000000	          0.00000000	          0.00373931	          0.00000000	
          2.47500000	          0.00000000	          0.00000000	         -0.00000000	         -0.00000000	          0.00000000	         -0.00000000	         -1.02737092	         -3.48033235	         -0.02609159	         -0.01068644	          0.00000000	         -0.00337985	          0.00000000	          0.00000000	          0.00000000	          0.00000000	          0.00263056	          0.00000000	
          2.48000000	          0.00000000	          0.00000000	         -0.00000000	         -0.00000000	          0.00000000	         -0.00000000	         -0.72747144	         -2.63246324	         -0.04224198	         -0.01072882	          0.00000000	         -0.00331797	          0.00000000	          0.00000000	          0.00000000	          0.00000000	          0.00171149	          0.00000000	
          2.48500000	         -0.00000000	          0.00000000	         -0.00000000	         -0.00000000	          0.00000000	         -0.00000000	         -0.47761752	         -1.88054519	         -0.04925807	         -0.00990749	          0.00000000	         -0.00301587	          0.00000000	          0.00000000	          0.00000000	          0.00000000	          0.00098675	          0.00000000	
          2.49000000	         -0.00000000	         -0.00000000	         -0.00000000	         -0.00000000	          0.00000000	         -0.00000000	         -0.27961726	         -1.24962632	         -0.04986164	         -0.00859722	          0.00000000	         -0.00258363	          0.00000000	          0.00000000	          0.00000000	          0.00000000	          0.00044395	          0.00000000	
          2.49500000	         -0.00000000	         -0.00000000	         -0.00000000	         -0.00000000	          0.00000000	         -0.00000000	         -0.13052919	         -0.74619994	         -0.04630525	         -0.00707703	          0.00000000	         -0.00210210	          0.00000000	          0.00000000	          0.00000000	          0.00000000	          0.00006075	          0.00000000	
          2.50000000	         -0.00000000	         -0.00000000	         -0.00000000	         -0.00000000	          0.00000000	         -0.00000000	         -0.02459862	         -0.36434696	         -0.04036241	         -0.00554246	          0.00000000	         -0.00162706	          0.00000000	          0.00000000	          0.00000000	          0.00000000	         -0.00018979	          0.00000000	
          2.50500000	         -0.00000000	         -0.00000000	         -0.00000000	         -0.00000000	          0.00000000	         -0.00000000	          0.04527806	         -0.09065661	         -0.03335921	         -0.00412002	          0.00000000	         -0.00119374	          0.00000000	          0.00000000	          0.00000000	          0.00000000	         -0.00033545	          0.00000000	
          2.51000000	         -0.00000000	         -0.00000000	         -0.00000000	          0.00000000	          0.00000000	          0.00000000	          0.08650767	          0.09202556	         -0.02622988	         -0.00288200	          0.00000000	         -0.00082145	          0.00000000	          0.00000000	          0.00000000	          0.00000000	         -0.00040233	          0.00000000	
          2.51500000	         -0.00000000	         -0.00000000	         -0.00000000	          0.00000000	          0.00000000	          0.00000000	          0.10610571	          0.20189798	         -0.01958352	         -0.00186015	          0.00000000	         -0.00051774	          0.00000000	         -0.00000000	          0.00000000	          0.00000000	         -0.00041339	          0.00000000	
          2.52000000	         -0.00000000	         -0.00000000	         -0.00000000	          0.00000000	          0.00000000	          0.00000000	          0.11028188	          0.25638935	         -0.01377251	         -0.00105774	          0.00000000	         -0.00028203	          0.00000000	         -0.00000000	          0.00000000	          0.00000000	         -0.00038780	          0.00000000	
          2.52500000	         -0.00000000	         -0.00000000	         -0.00000000	          0.00000000	          0.00000000	          0.00000000	          0.10423801	          0.27105631	         -0.00895679	         -0.00045952	          0.00000000	         -0.00010857	          0.00000000	         -0.00000000	          0.00000000	          0.00000000	         -0.00034071	          0.00000000	
          2.53000000	         -0.00000000	         -0.00000000	          0.00000000	          0.00000000	          0.00000000	          0.00000000	          0.09211823	          0.25902467	         -0.00516018	         -0.00003954	          0.00000000	          0.00001125	          0.00000000	         -0.00000000	          0.00000000	          0.00000000	         -0.00028357	          0.00000000	
          2.53500000	         -0.00000000	         -0.00000000	          0.00000000	          0.00000000	          0.00000000	          0.00000000	          0.07706061	          0.23082330	         -0.00231739	          0.00023290	          0.00000000	          0.00008720	          0.00000000	         -0.00000000	          0.00000000	          0.00000000	         -0.00022450	          0.00000000	
          2.54000000	         -0.00000000	         -0.00000000	          0.00000000	          0.00000000	          0.00000000	          0.00000000	          0.06130988	          0.19448297	         -0.00031108	          0.00038920	          0.00000000	          0.00012901	          0.00000000	         -0.00000000	          0.00000000	          0.00000000	         -0.00016887	          0.00000000	
